<svg width="69" height="59" viewBox="0 0 69 59" fill="none" xmlns="http://www.w3.org/2000/svg">
<path d="M34.6786 57.4545C52.7264 57.4545 67.3571 45.0406 67.3571 29.7273C67.3571 14.4139 52.7264 2 34.6786 2C16.6307 2 2 14.4139 2 29.7273C2 45.0406 16.6307 57.4545 34.6786 57.4545Z" stroke="#FF267E" stroke-width="2.37736" stroke-linecap="round" stroke-linejoin="round"/>
<path fill-rule="evenodd" clip-rule="evenodd" d="M34.6786 2C52.7268 2 67.3571 14.4136 67.3571 29.7257C67.3571 45.0378 52.7268 57.4514 34.6786 57.4514C16.6304 57.4514 2 45.0415 2 29.7273C2 14.4131 16.6309 2.00159 34.6786 2.00159" fill="#000055"/>
<path d="M32.0906 42.6109V32.3921H21.5691V27.2824H32.0906V17.0176H37.3273V27.2824H47.8018V32.3921H37.3273V42.6109H32.0906Z" fill="#FF267E"/>
</svg>
